<?xml version="1.0" encoding="UTF-8" standalone="no"?>
<svg
   xmlns:dc="http://purl.org/dc/elements/1.1/"
   xmlns:cc="http://creativecommons.org/ns#"
   xmlns:rdf="http://www.w3.org/1999/02/22-rdf-syntax-ns#"
   xmlns:svg="http://www.w3.org/2000/svg"
   xmlns="http://www.w3.org/2000/svg"
   xmlns:sodipodi="http://sodipodi.sourceforge.net/DTD/sodipodi-0.dtd"
   xmlns:inkscape="http://www.inkscape.org/namespaces/inkscape"
   version="1.1"
   id="Layer_1"
   x="0px"
   y="0px"
   width="100px"
   height="100px"
   viewBox="0 0 100 100"
   enable-background="new 0 0 100 100"
   xml:space="preserve"
   inkscape:version="0.48.4 r9939"
   sodipodi:docname="noun_project_1164.svg"
   inkscape:export-filename="C:\dev\Gardiner.Oclock\Artwork\svg_1164\noun_project_1164-62x62 - White.png"
   inkscape:export-xdpi="65.769997"
   inkscape:export-ydpi="65.769997"><metadata
   id="metadata3069"><rdf:RDF><cc:Work
       rdf:about=""><dc:format>image/svg+xml</dc:format><dc:type
         rdf:resource="http://purl.org/dc/dcmitype/StillImage" /><dc:title></dc:title></cc:Work></rdf:RDF></metadata><defs
   id="defs3067" /><sodipodi:namedview
   pagecolor="#ffffff"
   bordercolor="#666666"
   borderopacity="1"
   objecttolerance="10"
   gridtolerance="10"
   guidetolerance="10"
   inkscape:pageopacity="0"
   inkscape:pageshadow="2"
   inkscape:window-width="1920"
   inkscape:window-height="1003"
   id="namedview3065"
   showgrid="false"
   inkscape:snap-page="true"
   inkscape:zoom="9.3945966"
   inkscape:cx="50"
   inkscape:cy="52.582"
   inkscape:window-x="-9"
   inkscape:window-y="-9"
   inkscape:window-maximized="1"
   inkscape:current-layer="Layer_1" />
<path
   d="M50,89.836c-23.389,0-42.418-19.027-42.418-42.417C7.582,24.029,26.611,5,50,5c23.389,0,42.418,19.029,42.418,42.419  C92.418,70.809,73.389,89.836,50,89.836z M50,9.912c-20.681,0-37.506,16.826-37.506,37.508c0,20.681,16.826,37.505,37.506,37.505  s37.507-16.824,37.507-37.505C87.507,26.737,70.681,9.912,50,9.912z"
   id="path3029"
   style="fill:#ffffff"
   inkscape:export-filename="C:\dev\Gardiner.Oclock\Artwork\svg_1164\noun_project_1164-150x150 - White.png"
   inkscape:export-xdpi="159.13"
   inkscape:export-ydpi="159.13" />
<path
   d="M50.001,49.875c-0.141,0-0.283-0.011-0.427-0.037c-1.173-0.206-2.03-1.226-2.03-2.419V29.442c0-1.355,1.1-2.456,2.456-2.456  c1.355,0,2.456,1.1,2.456,2.456v4.003l5.431-14.974c0.464-1.274,1.872-1.937,3.146-1.471c1.274,0.462,1.934,1.871,1.471,3.146  l-10.195,28.11C51.952,49.241,51.019,49.875,50.001,49.875z"
   id="path3031"
   style="fill:#000000" />
<circle
   cx="49.999"
   cy="12.956"
   r="1.617"
   id="circle3033"
   style="fill:#000000" />
<path
   d="M50,14.778c-1.006,0-1.823-0.817-1.823-1.823c0-1.005,0.817-1.823,1.823-1.823c1.004,0,1.821,0.817,1.821,1.823  C51.821,13.961,51.004,14.778,50,14.778z M50,11.542c-0.779,0-1.414,0.635-1.414,1.413c0,0.779,0.635,1.414,1.414,1.414  s1.412-0.635,1.412-1.414C51.412,12.177,50.779,11.542,50,11.542z"
   id="path3035"
   style="fill:#ffffff;stroke:#ffffff" />
<circle
   cx="34.343"
   cy="20.301"
   r="1.47"
   id="circle3037"
   style="fill:#ffffff" />
<path
   d="M23.617,30.488c0.703,0.409,0.945,1.305,0.537,2.008c-0.405,0.704-1.305,0.947-2.007,0.538  c-0.703-0.403-0.945-1.305-0.539-2.008C22.016,30.325,22.913,30.085,23.617,30.488z"
   id="path3039"
   style="fill:#ffffff" />
<circle
   cx="15.536"
   cy="47.42"
   r="1.618"
   id="circle3041"
   style="fill:#ffffff" />
<path
   d="M15.536,49.242c-1.006,0-1.823-0.817-1.823-1.823c0.001-1,0.819-1.819,1.823-1.822c1.006,0,1.823,0.817,1.823,1.822  C17.359,48.425,16.542,49.242,15.536,49.242z M15.536,46.006c-0.777,0.003-1.412,0.636-1.414,1.413c0,0.779,0.635,1.414,1.414,1.414  s1.413-0.635,1.413-1.414C16.949,46.641,16.315,46.006,15.536,46.006z"
   id="path3043"
   style="fill:#ffffff" />
<path
   d="M22.147,61.803c0.705-0.406,1.602-0.167,2.007,0.537c0.408,0.703,0.166,1.602-0.537,2.008  c-0.704,0.406-1.604,0.163-2.008-0.537C21.202,63.104,21.447,62.209,22.147,61.803z"
   id="path3045"
   style="fill:#ffffff" />
<path
   d="M33.07,73.803c0.408-0.706,1.305-0.946,2.008-0.537c0.704,0.403,0.945,1.302,0.538,2.005  c-0.405,0.704-1.307,0.947-2.007,0.537C32.904,75.402,32.667,74.507,33.07,73.803z"
   id="path3047"
   style="fill:#ffffff" />
<path
   d="M48.382,81.884c0-0.896,0.725-1.618,1.618-1.618c0.892-0.003,1.618,0.723,1.618,1.618c0,0.892-0.728,1.618-1.618,1.618  C49.104,83.498,48.385,82.775,48.382,81.884z"
   id="path3049"
   style="fill:#ffffff" />
<path
   d="M50,83.706L50,83.706c-1.002-0.003-1.819-0.82-1.823-1.822c0-1.006,0.817-1.823,1.823-1.823  c1.007,0,1.822,0.817,1.822,1.823C51.822,82.889,51.006,83.706,50,83.706z M50.006,80.47c-0.785,0-1.42,0.635-1.42,1.414  c0.003,0.775,0.637,1.41,1.414,1.413c0.78,0,1.413-0.635,1.413-1.413C51.413,81.104,50.782,80.47,50.006,80.47z"
   id="path3051"
   style="fill:#ffffff" />
<path
   d="M64.385,75.271c-0.408-0.703-0.167-1.602,0.537-2.005c0.702-0.409,1.601-0.169,2.008,0.537  c0.406,0.7,0.163,1.603-0.539,2.005C65.686,76.214,64.791,75.971,64.385,75.271z"
   id="path3053"
   style="fill:#ffffff" />
<path
   d="M76.384,64.348c-0.704-0.406-0.945-1.305-0.537-2.008c0.402-0.704,1.301-0.943,2.006-0.537  c0.704,0.402,0.945,1.308,0.539,2.008C77.98,64.511,77.087,64.751,76.384,64.348z"
   id="path3055"
   style="fill:#ffffff" />
<path
   d="M84.464,49.038c-0.896-0.003-1.618-0.726-1.618-1.618c-0.001-0.892,0.723-1.618,1.618-1.618  c0.893-0.003,1.618,0.726,1.618,1.618C86.077,48.315,85.356,49.034,84.464,49.038z"
   id="path3057"
   style="fill:#ffffff" />
<path
   d="M84.464,49.242L84.464,49.242c-1.006-0.003-1.822-0.822-1.822-1.823c-0.002-0.486,0.188-0.943,0.532-1.287  c0.344-0.345,0.803-0.535,1.29-0.535c1.007,0,1.822,0.817,1.822,1.822C86.282,48.422,85.463,49.239,84.464,49.242z M84.471,46.006  c-0.386,0-0.74,0.147-1.008,0.416c-0.267,0.267-0.412,0.621-0.412,0.998c0,0.777,0.635,1.41,1.413,1.414  c0.775-0.003,1.408-0.638,1.413-1.415C85.877,46.641,85.246,46.006,84.471,46.006z"
   id="path3059"
   style="fill:#ffffff" />
<path
   d="M77.853,33.034c-0.705,0.409-1.604,0.166-2.006-0.538c-0.408-0.7-0.168-1.599,0.537-2.008  c0.701-0.406,1.604-0.163,2.008,0.537C78.795,31.732,78.553,32.627,77.853,33.034z"
   id="path3061"
   style="fill:#ffffff" />
<path
   d="M66.93,21.036c-0.407,0.704-1.308,0.943-2.008,0.537c-0.704-0.403-0.945-1.305-0.537-2.008  c0.404-0.703,1.306-0.943,2.006-0.537C67.095,19.437,67.333,20.333,66.93,21.036z"
   id="path3063"
   style="fill:#ffffff" />
<path
   style="fill:#ffffff;stroke:none"
   d="m 48.92292,49.505011 c -0.706194,-0.368919 -1.121123,-0.938655 -1.267931,-1.740984 -0.0718,-0.392379 -0.0996,-3.776688 -0.08,-9.739642 l 0.03002,-9.138314 0.235828,-0.440951 c 0.763229,-1.427082 2.480748,-1.811994 3.643668,-0.816577 0.831868,0.712047 0.895156,0.947204 0.95988,3.566555 l 0.05706,2.309027 2.714326,-7.515627 c 1.641346,-4.54468 2.84056,-7.708599 3.033659,-8.00379 0.22419,-0.34272 0.491517,-0.575376 0.897251,-0.780884 0.941937,-0.4771 1.845768,-0.35212 2.620954,0.362422 0.58556,0.539749 0.837245,1.17015 0.767901,1.923373 -0.07122,0.773548 -10.282082,28.905217 -10.681904,29.42941 -0.156899,0.205704 -0.530375,0.488136 -0.829948,0.627624 -0.746187,0.347445 -1.380012,0.33488 -2.100757,-0.04164 l 0,0 z"
   id="path3071"
   inkscape:connector-curvature="0" /><path
   style="fill:none"
   d="M 50 5.15625 C 46.110371 5.15625 44.821496 5.2635796 41.90625 5.84375 C 29.620531 8.288761 19.250151 15.814907 12.96875 26.875 C 8.569335 34.62135 6.7703173 44.304493 8.0625 53.34375 C 9.3909239 62.636526 13.590614 70.887224 20.375 77.59375 C 27.741828 84.876034 37.548293 89.216438 47.875 89.71875 C 49.571443 89.801272 50.18464 89.785265 52.8125 89.65625 C 56.912147 89.454977 61.632446 88.377393 65.90625 86.65625 C 72.817894 83.872798 79.144155 79.033889 83.75 72.96875 C 90.927036 63.517774 93.772985 51.568582 91.65625 39.875 C 89.035738 25.398369 78.9967 13.264747 65.15625 7.875 C 62.137039 6.6992592 59.010285 5.9254935 55.34375 5.40625 C 55.218871 5.388565 55.115261 5.3901774 55 5.375 C 53.768388 5.2128233 52.943542 5.15625 50 5.15625 z M 50 9.9375 C 52.511536 9.9375 53.533182 9.9811076 54.5625 10.125 C 56.902236 10.45208 59.056221 10.910674 61.09375 11.53125 C 62.452103 11.944967 63.782038 12.434911 65.0625 13 C 66.983193 13.847634 68.846357 14.889689 70.71875 16.125 C 72.683376 17.421161 74.51087 18.899992 76.1875 20.53125 C 76.858152 21.183753 77.504855 21.861776 78.125 22.5625 C 78.435072 22.912862 78.734279 23.263161 79.03125 23.625 C 79.251479 23.894447 79.474571 24.16202 79.6875 24.4375 C 80.047496 24.901795 80.3803 25.362532 80.71875 25.84375 C 80.72359 25.850635 80.713914 25.868112 80.71875 25.875 C 81.252929 26.635611 81.771626 27.418379 82.25 28.21875 C 82.491404 28.622644 82.742028 29.024055 82.96875 29.4375 C 83.195472 29.850945 83.413277 30.26489 83.625 30.6875 C 83.656411 30.750077 83.687695 30.812265 83.71875 30.875 C 83.897138 31.236032 84.051486 31.601371 84.21875 31.96875 C 84.415158 32.40014 84.600473 32.841466 84.78125 33.28125 C 85.444343 34.894387 86.012181 36.590083 86.4375 38.3125 C 86.862819 40.034917 87.161655 41.784041 87.34375 43.5625 C 87.432691 44.43115 87.501301 45.314932 87.53125 46.1875 C 87.53196 46.208172 87.530574 46.229327 87.53125 46.25 C 87.56047 47.143258 87.56454 48.015618 87.53125 48.90625 C 87.46467 50.687514 87.258206 52.456669 86.9375 54.1875 C 86.626145 55.867868 86.213281 57.528038 85.6875 59.125 C 85.173286 60.686829 84.580477 62.221383 83.875 63.6875 C 83.85913 63.72048 83.828463 63.748322 83.8125 63.78125 C 83.086915 65.277961 82.254515 66.714136 81.34375 68.09375 C 79.066837 71.542785 76.243102 74.592067 72.96875 77.125 C 72.31388 77.631587 71.626784 78.130124 70.9375 78.59375 C 70.248216 79.057376 69.534371 79.487691 68.8125 79.90625 C 68.800081 79.913443 68.793679 79.93032 68.78125 79.9375 C 68.070989 80.348261 67.333729 80.728606 66.59375 81.09375 C 65.841121 81.465136 65.094059 81.802892 64.3125 82.125 C 63.530941 82.447108 62.714912 82.760526 61.90625 83.03125 C 59.562798 83.815792 57.522838 84.30089 54.84375 84.6875 C 54.83318 84.689025 54.82309 84.685977 54.8125 84.6875 C 54.791224 84.689595 54.771193 84.685483 54.75 84.6875 C 54.464547 84.725223 53.961907 84.748733 53.28125 84.78125 C 53.183172 84.78046 52.89677 84.791996 52.9375 84.78125 C 53.030068 84.756827 53.505502 84.685417 54.375 84.59375 C 55.849237 84.438329 58.331704 83.938031 60.03125 83.46875 C 70.833779 80.485945 80.001951 72.475107 84.4375 62.09375 C 88.078114 53.572933 88.404557 43.955216 85.375 35.21875 C 81.020258 22.660793 70.177528 13.200147 57.25 10.6875 C 54.391964 10.131999 53.456009 10.0625 50 10.0625 C 46.543991 10.0625 45.608036 10.132001 42.75 10.6875 C 33.092202 12.564629 24.405065 18.392298 18.84375 26.71875 C 12.881165 35.645987 11.06648 46.62214 13.8125 57 C 17.449409 70.744741 28.733954 81.333195 42.6875 84.125 C 45.02763 84.593209 46.350721 84.733019 49.3125 84.8125 L 50.875 84.875 C 50.357105 84.88784 49.886899 84.900409 49.40625 84.90625 C 48.997997 84.906457 48.775286 84.906477 48.46875 84.90625 C 47.808103 84.907034 47.344626 84.899293 47.09375 84.875 C 47.073563 84.874417 47.051015 84.875634 47.03125 84.875 C 47.026752 84.874491 47.004895 84.875553 47 84.875 C 46.781882 84.850354 46.168962 84.779281 45.625 84.71875 C 45.023658 84.651837 44.440551 84.566355 43.84375 84.46875 C 39.66614 83.785516 35.593983 82.369052 31.875 80.3125 C 28.6873 78.549741 25.756343 76.303337 23.1875 73.6875 C 22.759359 73.251527 22.344234 72.801088 21.9375 72.34375 C 21.530766 71.886412 21.134122 71.415537 20.75 70.9375 C 20.285765 70.359763 19.832686 69.785968 19.40625 69.1875 C 19.006876 68.627011 18.615933 68.077351 18.25 67.5 C 18.200399 67.421742 18.173984 67.328555 18.125 67.25 C 16.220171 64.19525 14.762908 60.907021 13.8125 57.5 C 13.427448 56.119665 13.129942 54.729064 12.90625 53.3125 C 12.794404 52.604218 12.695998 51.871255 12.625 51.15625 C 12.554002 50.441245 12.529811 49.751421 12.5 49.03125 C 12.350946 45.430395 12.718973 41.769527 13.625 38.15625 C 15.180291 31.953676 18.352758 26.231784 22.75 21.59375 C 23.189724 21.129947 23.661589 20.692038 24.125 20.25 C 24.588411 19.807962 25.045013 19.38791 25.53125 18.96875 C 26.989961 17.71127 28.538845 16.531548 30.1875 15.5 C 30.737052 15.156151 31.306064 14.84777 31.875 14.53125 C 32.715106 14.063868 33.610145 13.60023 34.53125 13.1875 C 34.991802 12.981135 35.463424 12.784049 35.9375 12.59375 C 36.885653 12.213152 37.837154 11.869219 38.8125 11.5625 C 40.275518 11.102421 41.764184 10.726553 43.1875 10.46875 C 44.452482 10.239626 45.337575 10.10794 46.3125 10.03125 C 47.287425 9.9545595 48.352252 9.9375 50 9.9375 z M 50.09375 11.0625 C 51.009957 11.108121 51.84375 11.863517 51.84375 12.96875 C 51.84375 13.700712 51.453379 14.310082 50.78125 14.65625 C 50.653374 14.722106 50.285935 14.78125 49.96875 14.78125 C 48.339519 14.78125 47.530578 12.781923 48.6875 11.625 C 48.983188 11.329312 49.336771 11.155584 49.6875 11.09375 C 49.819023 11.070562 49.962863 11.055983 50.09375 11.0625 z M 49.8125 11.21875 C 49.013451 11.310938 48.28125 11.935536 48.28125 13 C 48.28125 13.615648 48.592393 14.110387 49.15625 14.4375 C 50.419944 15.17061 52.007313 14.01176 51.6875 12.59375 C 51.453513 11.556282 50.611549 11.126562 49.8125 11.21875 z M 60.25 16.8125 C 61.490223 16.852397 62.65625 17.792094 62.65625 19.28125 C 62.65625 19.780198 61.961215 21.848583 57.53125 34.0625 C 54.698155 41.873662 52.30743 48.422253 52.21875 48.59375 C 51.984217 49.047285 51.486908 49.495391 51 49.71875 C 50.480123 49.957234 49.5456 49.972444 49.03125 49.75 C 48.549297 49.541567 48.00897 49.005605 47.71875 48.46875 L 47.5 48.03125 L 47.5 38.53125 C 47.5 28.147993 47.489181 28.536658 48.125 27.8125 C 48.631427 27.235711 49.191544 26.96875 50 26.96875 C 50.77081 26.96875 51.34888 27.197342 51.84375 27.71875 C 52.41444 28.320044 52.482559 28.711183 52.53125 30.90625 L 52.59375 32.9375 L 55.28125 25.5 C 56.76098 21.42038 58.062905 17.970897 58.1875 17.8125 C 58.744665 17.104179 59.505866 16.788562 60.25 16.8125 z M 34.40625 18.84375 C 34.693238 18.851722 34.981059 18.905375 35.1875 19.03125 C 36.111373 19.594567 36.051566 21.111318 35.09375 21.625 C 34.664786 21.855057 34.101665 21.863469 33.625 21.65625 C 32.618749 21.218805 32.60134 19.513195 33.59375 19 C 33.814233 18.885986 34.119262 18.835778 34.40625 18.84375 z M 65.34375 18.84375 C 65.445397 18.826071 65.545903 18.843375 65.65625 18.84375 C 66.23924 18.845749 66.601214 19.016107 66.90625 19.46875 C 67.403811 20.207082 67.108196 21.336844 66.34375 21.65625 C 65.246428 22.11474 64.15515 21.437084 64.15625 20.28125 C 64.156937 19.543372 64.632224 18.967501 65.34375 18.84375 z M 34.03125 18.9375 C 33.785761 18.967135 33.652096 19.066654 33.375 19.34375 C 33.027177 19.691572 32.96875 19.8454 32.96875 20.21875 C 32.96875 20.785599 33.193177 21.236701 33.625 21.5 C 34.799323 22.216026 36.225715 20.909585 35.59375 19.6875 C 35.328031 19.173655 34.906212 18.9375 34.3125 18.9375 C 34.193954 18.9375 34.11308 18.927622 34.03125 18.9375 z M 65.6875 18.9375 C 64.266723 18.9375 63.729738 20.763584 64.9375 21.5 C 65.884063 22.077153 67.03027 21.368738 67.03125 20.21875 C 67.031591 19.820371 66.979115 19.697866 66.625 19.34375 C 66.255539 18.974286 66.161683 18.9375 65.6875 18.9375 z M 22.75 30.25 C 23.552931 30.201639 24.394856 30.792001 24.375 31.78125 C 24.36222 32.417913 24.036433 32.910362 23.5 33.125 C 22.955334 33.342929 22.677721 33.355595 22.21875 33.125 C 21.470805 32.749221 21.157379 31.785487 21.53125 31.0625 C 21.804493 30.534105 22.268241 30.279017 22.75 30.25 z M 76.9375 30.28125 C 77.083934 30.256799 77.210189 30.258685 77.34375 30.28125 C 78.707249 30.511611 79.088611 32.277014 77.9375 33.03125 C 77.281586 33.461022 76.219956 33.247445 75.84375 32.59375 C 75.604084 32.177263 75.605226 31.341289 75.84375 30.9375 C 76.042619 30.600842 76.498197 30.354602 76.9375 30.28125 z M 22.96875 30.375 C 22.671843 30.353953 22.34897 30.430912 22.0625 30.65625 C 21.181815 31.348996 21.342977 32.587416 22.375 33.0625 C 22.980205 33.341102 23.774142 33.024303 24.09375 32.40625 C 24.601544 31.424285 23.859471 30.438141 22.96875 30.375 z M 77.0625 30.375 C 76.889796 30.380745 76.729375 30.420813 76.5625 30.5 C 75.521385 30.994042 75.505401 32.511013 76.53125 33.03125 C 77.657557 33.602432 78.952546 32.304351 78.375 31.1875 C 78.100076 30.655853 77.580612 30.357765 77.0625 30.375 z M 15.3125 45.5625 C 15.641901 45.526494 15.974967 45.5967 16.3125 45.75 C 17.422262 46.254029 17.741154 47.62544 16.96875 48.5625 C 16.7848 48.785663 16.474017 49.04446 16.28125 49.125 C 15.792498 49.32921 15.118311 49.30658 14.65625 49.0625 C 14.076614 48.75631 13.77126 48.288484 13.71875 47.5625 C 13.681214 47.043561 13.734908 46.867772 13.96875 46.46875 C 14.272503 45.950436 14.763499 45.622511 15.3125 45.5625 z M 84.21875 45.5625 C 84.588457 45.512506 84.98128 45.587094 85.34375 45.78125 C 86.031148 46.149452 86.32578 46.702544 86.28125 47.53125 C 86.240035 48.298208 85.959646 48.748294 85.34375 49.0625 C 83.789886 49.855223 82.051616 48.266314 82.75 46.6875 C 83.031439 46.051261 83.602571 45.645824 84.21875 45.5625 z M 15.59375 45.65625 C 14.917288 45.658749 14.21164 46.106181 13.96875 46.6875 C 13.578074 47.62252 13.984155 48.676022 14.875 49.03125 C 15.695807 49.35855 16.706511 48.987429 17.09375 48.1875 C 17.352846 47.652278 17.388358 47.26197 17.1875 46.78125 C 16.991137 46.311285 16.34136 45.77499 15.875 45.6875 C 15.781448 45.66995 15.690387 45.655893 15.59375 45.65625 z M 84.46875 45.65625 C 84.031585 45.642011 83.638511 45.830239 83.25 46.21875 C 82.376076 47.092674 82.554509 48.246602 83.65625 48.9375 C 84.112329 49.223505 84.978733 49.194189 85.40625 48.875 C 86.638438 47.955039 86.353417 46.183582 84.90625 45.75 C 84.747909 45.70256 84.614472 45.660996 84.46875 45.65625 z M 77.21875 61.5625 C 77.950259 61.609548 78.625 62.198864 78.625 63.0625 C 78.625 63.583016 78.340105 64.091422 77.875 64.375 C 77.453859 64.63177 76.889165 64.644151 76.40625 64.40625 C 75.589988 64.004131 75.356325 62.791263 75.96875 62.09375 C 76.314571 61.699882 76.779844 61.534271 77.21875 61.5625 z M 22.9375 61.59375 C 24.436532 61.59375 24.922373 63.695842 23.59375 64.40625 C 23.113717 64.66292 22.560307 64.640411 22.125 64.375 C 20.775596 63.552259 21.356157 61.59375 22.9375 61.59375 z M 23.03125 61.6875 C 22.89375 61.672541 22.741418 61.685446 22.59375 61.71875 C 21.314658 62.007232 21.073627 63.698365 22.21875 64.3125 C 22.881539 64.667958 23.580802 64.476345 24.03125 63.84375 C 24.644357 62.98272 23.993753 61.792211 23.03125 61.6875 z M 77.03125 61.6875 C 76.581897 61.731177 76.122197 61.986586 75.9375 62.34375 C 75.553761 63.085819 75.820045 64.034156 76.53125 64.34375 C 77.138135 64.607933 77.634752 64.490952 78.125 64 C 78.436864 63.687685 78.604732 63.167284 78.5 62.75 C 78.391867 62.319163 77.917326 61.839539 77.46875 61.71875 C 77.33073 61.681585 77.181034 61.672941 77.03125 61.6875 z M 34.09375 73.03125 C 34.18797 73.016946 34.277979 73.027373 34.375 73.03125 C 34.763086 73.046759 35.162748 73.211853 35.46875 73.53125 C 36.062773 74.151277 35.916884 75.342582 35.1875 75.8125 C 34.267605 76.405158 32.994781 75.843946 32.875 74.78125 C 32.801333 74.127689 32.912632 73.828445 33.3125 73.4375 C 33.538882 73.216172 33.811092 73.074162 34.09375 73.03125 z M 65.53125 73.03125 C 65.931936 72.996525 66.353948 73.111391 66.6875 73.4375 C 67.087364 73.828445 67.19867 74.127689 67.125 74.78125 C 67.059855 75.359215 66.653317 75.844552 66.09375 76 C 65.659211 76.120698 65.600051 76.123631 65.1875 76 C 64.506327 75.795871 64.11292 75.151128 64.1875 74.375 C 64.261916 73.600539 64.863441 73.089125 65.53125 73.03125 z M 34.375 73.125 C 34.19304 73.12127 34.018974 73.181922 33.78125 73.28125 C 33.074706 73.576465 32.752485 74.56648 33.15625 75.25 C 33.256795 75.420209 33.513915 75.664387 33.75 75.78125 C 34.259168 76.033293 34.364415 76.034677 34.8125 75.84375 C 35.964256 75.352993 36.060102 73.79913 34.96875 73.28125 C 34.739249 73.172343 34.55696 73.12873 34.375 73.125 z M 65.75 73.125 C 65.652573 73.11727 65.56866 73.140037 65.46875 73.15625 C 64.005197 73.393751 63.861232 75.450064 65.28125 75.875 C 65.726515 76.008244 65.740944 76.012552 66.21875 75.78125 C 66.741014 75.528426 67.031792 75.08629 67.03125 74.53125 C 67.030538 73.798741 66.43199 73.179108 65.75 73.125 z M 50 80.09375 C 50.570776 80.09375 50.801257 80.140785 51.03125 80.3125 C 51.69401 80.807322 51.983 81.553662 51.8125 82.3125 C 51.683795 82.885324 51.397438 83.248329 50.84375 83.53125 C 50.585959 83.662974 50.209367 83.75 50 83.75 C 49.528706 83.75 48.735155 83.366164 48.46875 83 C 48.030201 82.397088 48.030068 81.368817 48.46875 80.78125 C 48.884641 80.224209 49.220156 80.09375 50 80.09375 z M 49.9375 80.15625 C 49.507545 80.168862 49.13996 80.32879 48.8125 80.65625 C 47.915173 81.553576 48.145741 82.909066 49.28125 83.46875 C 50.550314 84.094261 52.065071 82.8362 51.6875 81.46875 C 51.533681 80.911662 50.912656 80.2825 50.40625 80.1875 C 50.24792 80.157797 50.080818 80.152046 49.9375 80.15625 z "
   id="path3073"
   inkscape:export-filename="C:\dev\Gardiner.Oclock\Artwork\svg_1164\noun_project_1164-173x173 - White.png"
   inkscape:export-xdpi="183.85001"
   inkscape:export-ydpi="183.85001" /></svg>